<mxfile host="app.diagrams.net" modified="2023-02-26T17:42:49.031Z" agent="5.0 (Macintosh; Intel Mac OS X 10_15_7) AppleWebKit/537.36 (KHTML, like Gecko) Chrome/109.0.0.0 Safari/537.36" etag="AhIgw7NOSpoDne3e7CT1" version="20.8.23" type="github">
  <diagram name="Page-1" id="g17BGAojbeGhU5J0jATh">
    <mxGraphModel dx="1480" dy="602" grid="1" gridSize="10" guides="1" tooltips="1" connect="1" arrows="1" fold="1" page="1" pageScale="1" pageWidth="827" pageHeight="1169" math="0" shadow="0">
      <root>
        <mxCell id="0" />
        <mxCell id="1" parent="0" />
        <mxCell id="BbJQ-s90_8aoHtyI9SZb-1" value="UI&lt;br&gt;(react-js)" style="whiteSpace=wrap;html=1;aspect=fixed;labelBackgroundColor=none;fillColor=#182E3E;strokeColor=#FFFFFF;fontColor=#FFFFFF;" parent="1" vertex="1">
          <mxGeometry x="30" y="180" width="120" height="120" as="geometry" />
        </mxCell>
        <mxCell id="vFMrQEGRFcwKw40s8oGV-3" value="auth-service" style="whiteSpace=wrap;html=1;aspect=fixed;" vertex="1" parent="1">
          <mxGeometry x="440" y="50" width="110" height="110" as="geometry" />
        </mxCell>
        <mxCell id="vFMrQEGRFcwKw40s8oGV-5" value="api-gateway" style="whiteSpace=wrap;html=1;aspect=fixed;" vertex="1" parent="1">
          <mxGeometry x="249" y="185" width="110" height="110" as="geometry" />
        </mxCell>
        <mxCell id="vFMrQEGRFcwKw40s8oGV-12" value="" style="endArrow=classic;html=1;rounded=0;strokeColor=#23445D;exitX=1;exitY=0.5;exitDx=0;exitDy=0;entryX=0;entryY=0.5;entryDx=0;entryDy=0;" edge="1" parent="1" source="BbJQ-s90_8aoHtyI9SZb-1" target="vFMrQEGRFcwKw40s8oGV-5">
          <mxGeometry relative="1" as="geometry">
            <mxPoint x="350" y="260" as="sourcePoint" />
            <mxPoint x="450" y="260" as="targetPoint" />
          </mxGeometry>
        </mxCell>
        <mxCell id="vFMrQEGRFcwKw40s8oGV-13" value="" style="shape=message;html=1;outlineConnect=0;strokeColor=#FFFFFF;fontColor=#FFFFFF;fillColor=#182E3E;" vertex="1" parent="vFMrQEGRFcwKw40s8oGV-12">
          <mxGeometry width="20" height="14" relative="1" as="geometry">
            <mxPoint x="-10" y="-7" as="offset" />
          </mxGeometry>
        </mxCell>
        <mxCell id="vFMrQEGRFcwKw40s8oGV-15" value="job-management-service" style="whiteSpace=wrap;html=1;aspect=fixed;" vertex="1" parent="1">
          <mxGeometry x="450" y="330" width="110" height="110" as="geometry" />
        </mxCell>
        <mxCell id="vFMrQEGRFcwKw40s8oGV-17" value="" style="edgeStyle=orthogonalEdgeStyle;rounded=0;orthogonalLoop=1;jettySize=auto;html=1;strokeColor=#23445D;fontColor=#000000;" edge="1" parent="1" source="vFMrQEGRFcwKw40s8oGV-16" target="vFMrQEGRFcwKw40s8oGV-3">
          <mxGeometry relative="1" as="geometry" />
        </mxCell>
        <mxCell id="vFMrQEGRFcwKw40s8oGV-16" value="DB" style="shape=cylinder3;whiteSpace=wrap;html=1;boundedLbl=1;backgroundOutline=1;size=15;labelBackgroundColor=#FFFFFF;strokeColor=#FFFFFF;fontColor=#000000;fillColor=#182E3E;" vertex="1" parent="1">
          <mxGeometry x="465" y="190" width="60" height="60" as="geometry" />
        </mxCell>
        <mxCell id="vFMrQEGRFcwKw40s8oGV-19" value="" style="edgeStyle=orthogonalEdgeStyle;rounded=0;orthogonalLoop=1;jettySize=auto;html=1;strokeColor=#23445D;fontColor=#000000;" edge="1" parent="1" source="vFMrQEGRFcwKw40s8oGV-18" target="vFMrQEGRFcwKw40s8oGV-15">
          <mxGeometry relative="1" as="geometry" />
        </mxCell>
        <mxCell id="vFMrQEGRFcwKw40s8oGV-18" value="DB" style="shape=cylinder3;whiteSpace=wrap;html=1;boundedLbl=1;backgroundOutline=1;size=15;labelBackgroundColor=#FFFFFF;strokeColor=#FFFFFF;fontColor=#000000;fillColor=#182E3E;" vertex="1" parent="1">
          <mxGeometry x="475" y="480" width="60" height="60" as="geometry" />
        </mxCell>
        <mxCell id="vFMrQEGRFcwKw40s8oGV-20" value="notification-service&amp;nbsp;" style="whiteSpace=wrap;html=1;aspect=fixed;" vertex="1" parent="1">
          <mxGeometry x="670" y="330" width="110" height="110" as="geometry" />
        </mxCell>
        <mxCell id="vFMrQEGRFcwKw40s8oGV-22" value="" style="edgeStyle=orthogonalEdgeStyle;rounded=0;orthogonalLoop=1;jettySize=auto;html=1;strokeColor=#23445D;fontColor=#000000;" edge="1" parent="1" source="vFMrQEGRFcwKw40s8oGV-21" target="vFMrQEGRFcwKw40s8oGV-20">
          <mxGeometry relative="1" as="geometry" />
        </mxCell>
        <mxCell id="vFMrQEGRFcwKw40s8oGV-21" value="DB" style="shape=cylinder3;whiteSpace=wrap;html=1;boundedLbl=1;backgroundOutline=1;size=15;labelBackgroundColor=#FFFFFF;strokeColor=#FFFFFF;fontColor=#000000;fillColor=#182E3E;" vertex="1" parent="1">
          <mxGeometry x="695" y="480" width="60" height="60" as="geometry" />
        </mxCell>
        <mxCell id="vFMrQEGRFcwKw40s8oGV-23" value="admin-service" style="whiteSpace=wrap;html=1;aspect=fixed;" vertex="1" parent="1">
          <mxGeometry x="660" y="50" width="110" height="110" as="geometry" />
        </mxCell>
        <mxCell id="vFMrQEGRFcwKw40s8oGV-25" value="" style="edgeStyle=orthogonalEdgeStyle;rounded=0;orthogonalLoop=1;jettySize=auto;html=1;strokeColor=#23445D;fontColor=#000000;" edge="1" parent="1" source="vFMrQEGRFcwKw40s8oGV-24" target="vFMrQEGRFcwKw40s8oGV-23">
          <mxGeometry relative="1" as="geometry" />
        </mxCell>
        <mxCell id="vFMrQEGRFcwKw40s8oGV-24" value="DB" style="shape=cylinder3;whiteSpace=wrap;html=1;boundedLbl=1;backgroundOutline=1;size=15;labelBackgroundColor=#FFFFFF;strokeColor=#FFFFFF;fontColor=#000000;fillColor=#182E3E;" vertex="1" parent="1">
          <mxGeometry x="685" y="200" width="60" height="60" as="geometry" />
        </mxCell>
        <mxCell id="vFMrQEGRFcwKw40s8oGV-28" value="Backend Servies" style="swimlane;whiteSpace=wrap;html=1;labelBackgroundColor=#000000;strokeColor=#FFFFFF;fontColor=#FFFFFF;fillColor=#182E3E;gradientColor=default;swimlaneFillColor=none;" vertex="1" parent="1">
          <mxGeometry x="410" y="20" width="380" height="550" as="geometry" />
        </mxCell>
      </root>
    </mxGraphModel>
  </diagram>
</mxfile>
